<?xml version="1.0" encoding="UTF-8" standalone="no"?>
<!-- Created with Inkscape (http://www.inkscape.org/) -->

<svg
   xmlns:dc="http://purl.org/dc/elements/1.1/"
   xmlns:cc="http://creativecommons.org/ns#"
   xmlns:rdf="http://www.w3.org/1999/02/22-rdf-syntax-ns#"
   xmlns:svg="http://www.w3.org/2000/svg"
   xmlns="http://www.w3.org/2000/svg"
   xmlns:sodipodi="http://sodipodi.sourceforge.net/DTD/sodipodi-0.dtd"
   xmlns:inkscape="http://www.inkscape.org/namespaces/inkscape"
   sodipodi:docname="beetle-solo.svg"
   inkscape:version="0.48.4 r9939"
   version="1.1"
   id="svg4405"
   height="538.4798"
   width="618.75812">
  <defs
     id="defs4407" />
  <sodipodi:namedview
     id="base"
     pagecolor="#ffffff"
     bordercolor="#666666"
     borderopacity="1.0"
     inkscape:pageopacity="0.0"
     inkscape:pageshadow="2"
     inkscape:zoom="0.7"
     inkscape:cx="42.236199"
     inkscape:cy="217.81133"
     inkscape:document-units="px"
     inkscape:current-layer="layer2"
     showgrid="false"
     fit-margin-top="0"
     fit-margin-left="0"
     fit-margin-right="0"
     fit-margin-bottom="0"
     inkscape:window-width="1440"
     inkscape:window-height="876"
     inkscape:window-x="0"
     inkscape:window-y="24"
     inkscape:window-maximized="1" />
  <metadata
     id="metadata4410">
    <rdf:RDF>
      <cc:Work
         rdf:about="">
        <dc:format>image/svg+xml</dc:format>
        <dc:type
           rdf:resource="http://purl.org/dc/dcmitype/StillImage" />
        <dc:title></dc:title>
      </cc:Work>
    </rdf:RDF>
  </metadata>
  <g
     inkscape:groupmode="layer"
     id="layer2"
     inkscape:label="bac"
     style="display:inline">
    <rect
       style="fill:#000000;fill-opacity:1;stroke:none;display:inline"
       id="rect3961-5-4"
       width="618.75812"
       height="538.4798"
       x="0"
       y="0"
       ry="230.0466" />
  </g>
  <g
     inkscape:label="Layer 1"
     inkscape:groupmode="layer"
     id="layer1"
     transform="translate(63.664772,-211.69371)"
     style="display:inline">
    <path
       style="fill:#ffffff;fill-opacity:1;stroke:none;display:inline"
       d="m 207.98025,269.72712 c -7.3768,0 -14.6147,0.6351 -21.625,1.875 0.8416,2.5035 1.3125,5.1816 1.3125,7.9687 0,13.8072 -11.1929,25 -25,25 -9.9973,0 -18.6254,-5.864 -22.625,-14.3437 -32.8182,21.8873 -54.375003,31.2383 -54.375003,73.8125 l 0,6.0312 c 0,1.0244 0.01,2.0443 0.031,3.0625 l 320.031203,0 c 0.025,-1.0182 0.031,-2.0381 0.031,-3.0625 l 0,-6.0312 c 0,-39.7225 -18.7437,-46.9024 -47.9062,-69.2188 -4.4195,7.0551 -12.2485,11.75 -21.1875,11.75 -13.8071,0 -25,-11.1928 -25,-25 0,-2.8915 0.5032,-5.6665 1.4062,-8.25 -9.472,-2.3386 -19.3787,-3.5937 -29.5936,-3.5937 l -75.5,0 z"
       id="path3759-4-2"
       inkscape:connector-curvature="0"
       sodipodi:nodetypes="ccsscssccsscsscscc" />
    <path
       style="fill:#ffffff;fill-opacity:1;stroke:none;display:inline"
       d="m 410,139.09448 c 0,13.80712 -11.19288,25 -25,25 -13.80712,0 -25,-11.19288 -25,-25 0,-13.80712 11.19288,-25 25,-25 13.80712,0 25,11.19288 25,25 z"
       id="path3783-0-3"
       transform="matrix(0.62319229,0,0,0.62319229,-77.728653,190.88897)"
       inkscape:connector-curvature="0" />
    <path
       style="fill:#ffffff;fill-opacity:1;stroke:none;display:inline"
       d="m 410,139.09448 c 0,13.80712 -11.19288,25 -25,25 -13.80712,0 -25,-11.19288 -25,-25 0,-13.80712 11.19288,-25 25,-25 13.80712,0 25,11.19288 25,25 z"
       id="path3785-2-6"
       transform="matrix(0.62319229,0,0,0.62319229,96.271347,192.88897)"
       inkscape:connector-curvature="0" />
    <path
       style="fill:#ffffff;fill-opacity:1;stroke:none;display:inline"
       d="m 145.03125,199.625 c -4.93676,0 -9.33302,2.29243 -12.1875,5.875 l -53.125,0 c -2.814257,-2.78245 -6.667297,-4.5 -10.9375,-4.5 -8.604491,0 -15.59375,6.98926 -15.59375,15.59375 0,8.60449 6.989259,15.5625 15.59375,15.5625 5.282636,0 9.932641,-2.63509 12.75,-6.65625 l 51.84375,0 c 2.85428,3.22148 7.01372,5.28125 11.65625,5.28125 8.60449,0 15.5625,-6.98926 15.5625,-15.59375 0,-8.60449 -6.95801,-15.5625 -15.5625,-15.5625 z"
       id="path3925-1-6"
       transform="translate(-63.664772,211.69371)"
       inkscape:connector-curvature="0" />
    <path
       inkscape:connector-curvature="0"
       style="fill:#ffffff;fill-opacity:1;stroke:none;display:inline"
       d="m 87.167147,390.51812 c 0,0 -0.4754,4.552 -1.125,11.875 9.5203,0.6944 17.563503,6.6939 21.187503,15.0624 l 21.9375,0 60,60 0,-30 20,0 0,40 28,0 0,-96.9374 -150.000003,0 z m 20.031203,46.9374 c -3.8701,8.8676 -12.706303,15.0626 -23.000003,15.0626 -0.4855,0 -0.9587,0 -1.4374,-0.031 -1.1843,28.2069 -1.3819,61.4689 1.7187,89.5 1.4614,-0.2649 2.9622,-0.4063 4.5,-0.4063 10.6056,0 19.670403,6.5753 23.343703,15.8751 l 6.8438,0 10,-10.0001 0,-36 18,18 32,-32 -60,-60 -11.9688,0 z m 101.9688,70 0,40 -20,0 0,-30 -27,27 17,17.0001 -34,0 -16,16 -17.5625,0 c -2.8884,6.0381 -8.0953,10.7458 -14.500003,12.9376 0.023,0.039 0.039,0.086 0.062,0.125 7.856603,13.1369 23.123403,23.7189 40.781203,32.125 3.8663,-8.8771 12.7309,-15.0625 23.0313,-15.0626 13.8589,0 25.0937,11.2349 25.0937,25.0938 0,2.4046 -0.3373,4.7046 -0.9687,6.9062 28.3074,7.7514 52.0625,10.9375 52.0625,10.9376 l 0,-143.0627 -28,0 z"
       id="path4011-9-4" />
    <path
       style="fill:#ffffff;fill-opacity:1;stroke:none;display:inline"
       d="m 150.96875,339.09375 c -4.93676,0 -9.33302,2.29243 -12.1875,5.875 l -53.125,0 c -2.814257,-2.78245 -6.667297,-4.5 -10.9375,-4.5 -8.604491,0 -15.59375,6.95801 -15.59375,15.5625 0,8.60449 6.989259,15.59375 15.59375,15.59375 5.281449,0 9.932442,-2.63662 12.75,-6.65625 l 51.84375,0 c 2.85428,3.22148 7.01372,5.28125 11.65625,5.28125 8.60449,0 15.5625,-6.98926 15.5625,-15.59375 0,-8.60449 -6.95801,-15.5625 -15.5625,-15.5625 z"
       id="path3925-1-5-19"
       transform="translate(-63.664772,211.69371)"
       inkscape:connector-curvature="0" />
    <path
       style="fill:#ffffff;fill-opacity:1;stroke:none;display:inline"
       d="m 224.59375,404.71875 c -3.98619,0.0907 -7.93406,1.70196 -10.90625,4.8125 -3.41274,3.5716 -4.80869,8.33356 -4.1875,12.875 l -36.71875,38.40625 c -3.94313,0.12158 -7.84056,1.73492 -10.78125,4.8125 -5.94437,6.22107 -5.72107,16.05563 0.5,22 6.22107,5.94437 16.08688,5.72107 22.03125,-0.5 3.65247,-3.82248 4.96548,-8.99422 4,-13.8125 l 35.8125,-37.46875 c 4.30725,0.16741 8.66297,-1.4197 11.875,-4.78125 5.94437,-6.22107 5.72107,-16.08688 -0.5,-22.03125 -3.11054,-2.97219 -7.13881,-4.40316 -11.125,-4.3125 z"
       id="path3925-1-5-1-4"
       transform="translate(-63.664772,211.69371)"
       inkscape:connector-curvature="0" />
    <path
       style="fill:#ffffff;fill-opacity:1;stroke:none;display:inline"
       d="m 473.4375,199.625 c -8.60449,0 -15.59375,6.95801 -15.59375,15.5625 0,8.60449 6.98926,15.59375 15.59375,15.59375 4.64253,0 8.77072,-2.05977 11.625,-5.28125 l 51.84375,0 c 2.81736,4.02116 7.49861,6.65625 12.78125,6.65625 8.60449,0 15.5625,-6.95801 15.5625,-15.5625 C 565.25,207.98926 558.29199,201 549.6875,201 c -4.2702,0 -8.15449,1.71755 -10.96875,4.5 l -53.125,0 c -2.85448,-3.58257 -7.21949,-5.875 -12.15625,-5.875 z"
       id="path4123-0"
       transform="translate(-63.664772,211.69371)"
       inkscape:connector-curvature="0" />
    <path
       id="path4130-9"
       d="m 403.94795,390.51812 c 0,0 0.4754,4.552 1.125,11.875 -9.5203,0.6944 -17.5635,6.6939 -21.1875,15.0624 l -21.9375,0 -60,60 0,-30 -20,0 0,40 -28,0 0,-96.9374 150,0 z m -20.0312,46.9374 c 3.8701,8.8676 12.7063,15.0626 23,15.0626 0.4855,0 0.9587,0 1.4374,-0.031 1.1843,28.2069 1.3819,61.4689 -1.7187,89.5 -1.4614,-0.2649 -2.9622,-0.4063 -4.5,-0.4063 -10.6056,0 -19.6704,6.5753 -23.3437,15.8751 l -6.8438,0 -10,-10.0001 0,-36 -18,18 -32,-32 60,-60 11.9688,0 z m -101.9688,70 0,40 20,0 0,-30 27,27 -17,17.0001 34,0 16,16 17.5625,0 c 2.8884,6.0381 8.0953,10.7458 14.5,12.9376 -0.023,0.039 -0.039,0.086 -0.062,0.125 -7.8566,13.1369 -23.1234,23.7189 -40.7812,32.125 -3.8663,-8.8771 -12.7309,-15.0625 -23.0313,-15.0626 -13.8589,0 -25.0937,11.2349 -25.0937,25.0938 0,2.4046 0.3373,4.7046 0.9687,6.9062 -28.3074,7.7514 -52.0625,10.9375 -52.0625,10.9376 l 0,-143.0627 28,0 z"
       style="fill:#ffffff;fill-opacity:1;stroke:none;display:inline"
       inkscape:connector-curvature="0" />
    <path
       style="fill:#ffffff;fill-opacity:1;stroke:none;display:inline"
       d="m 467.46875,339.09375 c -8.60449,0 -15.5625,6.95801 -15.5625,15.5625 0,8.60449 6.95801,15.59375 15.5625,15.59375 4.64253,0 8.80197,-2.05977 11.65625,-5.28125 l 51.84375,0 c 2.81736,4.02116 7.46736,6.65625 12.75,6.65625 8.60449,0 15.59375,-6.98926 15.59375,-15.59375 0,-8.60449 -6.98926,-15.5625 -15.59375,-15.5625 -4.2702,0 -8.12324,1.71755 -10.9375,4.5 l -53.125,0 c -2.85448,-3.58257 -7.25074,-5.875 -12.1875,-5.875 z"
       id="path4134-1"
       transform="translate(-63.664772,211.69371)"
       inkscape:connector-curvature="0" />
    <path
       style="fill:#ffffff;fill-opacity:1;stroke:none;display:inline"
       d="m 393.84375,404.71875 c -3.98619,-0.0907 -8.01446,1.34031 -11.125,4.3125 -6.22107,5.94437 -6.44437,15.81018 -0.5,22.03125 3.20923,3.35862 7.57142,4.94541 11.875,4.78125 l 35.8125,37.4375 c -0.97716,4.82681 0.33985,10.01323 4,13.84375 5.94437,6.22107 15.81018,6.44437 22.03125,0.5 6.22107,-5.94437 6.44437,-15.77893 0.5,-22 -2.94135,-3.07826 -6.83723,-4.69155 -10.78125,-4.8125 L 408.9375,422.375 c 0.61101,-4.53242 -0.78229,-9.28003 -4.1875,-12.84375 -2.97219,-3.11054 -6.92006,-4.72184 -10.90625,-4.8125 z"
       id="path4142-4"
       transform="translate(-63.664772,211.69371)"
       inkscape:connector-curvature="0" />
  </g>
</svg>
